<?xml version="1.0" standalone="no"?>
<!DOCTYPE svg PUBLIC "-//W3C//DTD SVG 1.1//EN" "http://www.w3.org/Graphics/SVG/1.1/DTD/svg11.dtd" >
<svg xmlns="http://www.w3.org/2000/svg">
<metadata></metadata>
<defs>
<font id="karlabold" horiz-adv-x="304" >
<font-face units-per-em="1000" ascent="800" descent="-200" />
<missing-glyph horiz-adv-x="253" />
<glyph horiz-adv-x="1000" />
<glyph horiz-adv-x="1000" />
<glyph unicode="&#xd;" horiz-adv-x="589" />
<glyph unicode=" "  horiz-adv-x="253" />
<glyph unicode="&#x09;" horiz-adv-x="253" />
<glyph unicode="&#xa0;" horiz-adv-x="253" />
<glyph unicode="!" horiz-adv-x="293" d="M86 664h128l-14 -445h-101zM91 13q-23 22 -23 56t23 57t59 23t60 -23t24 -57t-24 -56t-60 -22t-59 22z" />
<glyph unicode="&#x22;" horiz-adv-x="383" d="M150 686l-16 -238h-87l-15 238h118zM351 686l-16 -238h-87l-15 238h118z" />
<glyph unicode="#" horiz-adv-x="678" d="M396 164h-136l-14 -131h-111l14 131h-92l7 77h93l17 158h-93l8 78h93l14 129h111l-14 -129h136l14 129h111l-14 -129h94l-9 -78h-93l-17 -158h94l-8 -77h-94l-14 -131h-111zM268 241h136l17 158h-136z" />
<glyph unicode="$" horiz-adv-x="689" d="M475 343q75 -26 112 -65.5t37 -104.5q0 -71 -58 -123q-64 -55 -179 -63v-88h-84v90q-104 10 -169 62q-69 56 -69 152h117q0 -48 31 -73t90 -32v194l-50 17q-84 28 -130 67.5t-46 110.5t57.5 118.5t168.5 55.5v76h84v-77q97 -10 148 -60t65 -130h-117q-5 30 -29.5 53.5 t-66.5 32.5v-182zM466 123q25 22 25 52q0 57 -72 84l-32 12v-175q54 5 79 27zM230.5 532q-24.5 -21 -24.5 -49t16 -44.5t51 -28.5l30 -12v161q-48 -6 -72.5 -27z" />
<glyph unicode="%" horiz-adv-x="765" d="M198 662q27 0 52 -9.5t44 -28.5q41 -39 41 -113q0 -73 -41 -114q-38 -38 -97 -38q-57 0 -95 38q-41 41 -41 114q0 74 41 113q39 38 96 38zM246 511q0 76 -49 76q-48 0 -48 -76q0 -77 48 -77q49 0 49 77zM546 649h119l-439 -649h-120zM573 290q57 0 96 -38q41 -39 41 -113 t-41 -115q-38 -38 -96 -38t-96 38q-41 41 -41 115t41 113q39 38 96 38zM573 215q-48 0 -48 -76.5t48 -76.5q21 0 35 17.5t14 59t-14 59t-35 17.5z" />
<glyph unicode="&#x26;" horiz-adv-x="965" d="M764 344q-44 -125 -110 -207l17 -15q18 -16 34 -24t39.5 -8t40.5 17.5t19 56.5h107q-2 -82 -40.5 -130t-114.5 -48q-48 0 -88.5 19t-85.5 60q-100 -79 -222 -79q-112 0 -190 57q-78 58 -78 142q0 130 183 159l-16 15q-72 65 -72 143q0 69 57 112q61 46 162 46 q97 0 158 -46q56 -43 56 -108t-41.5 -109.5t-126.5 -76.5l127 -115q61 73 105 183zM342 284q-120 -17 -120 -92q0 -42 36.5 -70.5t102.5 -28.5q76 0 143 44zM465.5 428q24.5 26 24.5 58.5t-23 52t-64 19.5t-63.5 -21.5t-22.5 -51.5q0 -44 47 -85l23 -21q54 23 78.5 49z" />
<glyph unicode="'" horiz-adv-x="180" d="M149 677l-16 -238h-87l-15 238h118z" />
<glyph unicode="(" horiz-adv-x="400" d="M282 -118q-209 186 -209 436q0 252 209 436l85 -62q-86 -90 -129 -180.5t-43 -193.5t43 -192.5t129 -179.5z" />
<glyph unicode=")" horiz-adv-x="400" d="M118 754q209 -186 209 -436q0 -248 -209 -436l-86 64q87 90 130 179.5t43 192.5t-43.5 193.5t-129.5 180.5z" />
<glyph unicode="*" horiz-adv-x="409" d="M161 528l-111 37l30 70l99 -50l-12 119h80l-12 -119l99 52l30 -71l-109 -37l86 -82l-59 -51l-74 101l-76 -101l-57 51z" />
<glyph unicode="+" horiz-adv-x="544" d="M331 491v-194h195v-103h-195v-194h-118v194h-195v103h195v194h118z" />
<glyph unicode="," horiz-adv-x="253" d="M68.5 17.5q-19.5 17.5 -19.5 47t23 50.5t63 21t65 -31t25 -76q0 -73 -66 -133q-21 -19 -47 -32l-88 44q33 17 58.5 38t33.5 49q-28 5 -47.5 22.5z" />
<glyph unicode="-" horiz-adv-x="373" d="M46 353h281v-103h-281v103z" />
<glyph unicode="." horiz-adv-x="215" d="M47 13q-23 22 -23 56t23 57t59 23t60 -23t24 -57t-24 -56t-60 -22t-59 22z" />
<glyph unicode="/" horiz-adv-x="472" d="M310 745h121l-258 -826h-120z" />
<glyph unicode="0" horiz-adv-x="633" d="M316 662q60 0 109.5 -20.5t84.5 -62.5q76 -89 76 -255t-76 -255q-70 -83 -193 -83q-124 0 -195 83q-75 87 -75 255t75 255q71 83 194 83zM425.5 495.5q-38.5 59.5 -109 59.5t-109 -59.5t-38.5 -171.5t38.5 -170.5t109 -58.5t109 58.5t38.5 170.5t-38.5 171.5z" />
<glyph unicode="1" horiz-adv-x="357" d="M42 600q75 11 132 53h89v-653h-118v512q-51 -25 -103 -25v113z" />
<glyph unicode="2" horiz-adv-x="605" d="M178 108h371v-108h-489v111q0 117 83 170q28 18 65 32l133 51q44 17 64.5 42.5t20.5 63.5t-27 63.5t-77 25.5t-82.5 -24t-37.5 -71h-131q2 95 73 149q65 49 175 49q101 0 167 -54q67 -56 67 -137t-40.5 -129.5t-125.5 -81.5l-135 -52q-39 -15 -56.5 -33.5t-17.5 -47.5 v-19z" />
<glyph unicode="3" horiz-adv-x="622" d="M309 555q-109 0 -127 -83h-124q10 96 78 145q64 45 168 45q107 0 174 -50q70 -51 70 -131q0 -50 -27 -86.5t-80 -54.5q59 -20 94.5 -59.5t35.5 -90.5t-18.5 -87t-52.5 -62q-72 -55 -187 -55q-110 0 -185 56q-84 61 -84 162h126q3 -51 41.5 -80t100.5 -29t96.5 27.5 t34.5 70t-31.5 66.5t-99.5 24h-86v93h74q57 0 89 24.5t32 64.5t-27.5 65t-84.5 25z" />
<glyph unicode="4" horiz-adv-x="595" d="M468 656v-411h113v-101h-113v-144h-117v144h-329v89l332 423h114zM162 233h195v248z" />
<glyph unicode="5" horiz-adv-x="582" d="M219 395q54 9 103 9q101 0 161 -48.5t60 -139.5q0 -99 -67 -163q-71 -67 -179 -67q-107 0 -171 54q-67 56 -69 154h121q0 -51 34 -75t87 -24t87.5 34.5t34.5 86.5q0 99 -134 99h-198l30 334h389v-108h-275z" />
<glyph unicode="6" horiz-adv-x="607" d="M425 471q-5 39 -28 61.5t-63.5 22.5t-71 -17.5t-52.5 -50.5q-44 -68 -44 -184q0 -43 3 -65q11 86 65 126q47 34 117 34q90 0 149 -58q58 -56 58 -148t-65 -149t-170 -57q-122 0 -199 92t-77 235q0 166 77 259q75 90 204 90q98 0 158 -52q61 -53 65 -139h-126z M242.5 272.5q-32.5 -28.5 -32.5 -75.5t32.5 -74.5t80 -27.5t80.5 27.5t33 74.5t-34 77q-31 27 -79 27t-80.5 -28.5z" />
<glyph unicode="7" horiz-adv-x="498" d="M480 649v-113l-277 -536h-159l297 535h-317v114h456z" />
<glyph unicode="8" horiz-adv-x="647" d="M502 609.5q73 -52.5 73 -133.5q0 -49 -33.5 -87.5t-96.5 -49.5q83 -33 115 -67q38 -40 38 -100q0 -83 -72 -134q-75 -52 -203 -52q-123 0 -199 54q-75 52 -75 135q0 61 42.5 98.5t108.5 45.5q-87 42 -118 109q-11 25 -11 57q0 82 65.5 129.5t179 47.5t186.5 -52.5z M303 278q-91 -6 -123 -58q-9 -15 -9 -35t12 -37t33 -29q40 -24 112.5 -24t110 19.5t37.5 48t-18.5 46t-50.5 30.5zM259 411l75 -29q48 0 84 24q35 24 35 63t-36 62.5t-94 23.5q-56 0 -93 -21t-37 -58.5t66 -64.5z" />
<glyph unicode="9" horiz-adv-x="610" d="M293 95q152 0 152 250q0 27 -4 59q-13 -78 -65 -118q-46 -35 -117 -35q-91 0 -148.5 57.5t-57.5 147.5q0 92 65 149t169 57q118 0 197 -90q80 -92 80 -237q0 -251 -150 -325q-50 -24 -108.5 -24t-102 15t-75.5 42q-68 57 -68 149h123q2 -45 32.5 -71t77.5 -26z M207.5 526.5q-32.5 -27.5 -32.5 -76t32.5 -75.5t80.5 -27q47 0 80 28q33 30 33 75q0 46 -33 75q-32 28 -80 28t-80.5 -27.5z" />
<glyph unicode=":" horiz-adv-x="270" d="M74 30q-23 22 -23 56t23 57t59 23t60 -23t24 -57t-24 -56t-60 -22t-59 22zM74 327q-23 22 -23 56t23 57t59 23t60 -23t24 -57t-24 -56t-60 -22t-59 22z" />
<glyph unicode=";" horiz-adv-x="308" d="M98.5 17.5q-19.5 17.5 -19.5 47t23 50.5t63 21t65 -31t25 -76q0 -73 -66 -133q-21 -19 -47 -32l-88 44q33 17 58.5 38t33.5 49q-28 5 -47.5 22.5zM108 327q-23 22 -23 56t23 57t59 23t60 -23t24 -57t-24 -56t-60 -22t-59 22z" />
<glyph unicode="&#x3c;" horiz-adv-x="502" d="M457 527l-291 -205l291 -204l-78 -90l-334 241v107l334 241z" />
<glyph unicode="=" horiz-adv-x="506" d="M427 198v-103h-348v103h348zM427 408v-102h-348v102h348z" />
<glyph unicode="&#x3e;" horiz-adv-x="502" d="M123 617l334 -241v-107l-334 -241l-78 90l290 204l-290 205z" />
<glyph unicode="?" horiz-adv-x="517" d="M485 481q0 -53 -26 -88.5t-82 -63.5q-47 -24 -61.5 -41t-18.5 -31.5t-4 -33.5v-29h-118v40q0 90 54 128q19 14 56 33t53.5 38.5t16.5 50t-25 51t-74 20.5t-77 -23.5t-32 -61.5h-123q5 87 64 139.5t165.5 52.5t169 -52t62.5 -129zM177.5 121q22.5 22 59 22t60.5 -22 t24 -56t-24 -56.5t-60.5 -22.5t-59 22.5t-22.5 56.5t22.5 56z" />
<glyph unicode="@" horiz-adv-x="1027" d="M609 280q0 31 -11.5 50t-37.5 19t-49 -10.5t-42 -30.5q-44 -48 -44 -114q0 -45 23.5 -68.5t58.5 -23.5t58.5 19.5t43.5 58.5v100zM704 150q0 -51 35 -51q16 0 36.5 10.5t38.5 34.5q43 56 43 149q0 116 -77 187q-83 76 -220 76q-165 0 -270 -102q-104 -100 -104 -252 q0 -147 99 -232q104 -91 284 -91v-97q-114 0 -206.5 33.5t-158.5 91t-101.5 135.5t-35.5 173.5t37 179t103 143t156.5 92t190 32.5t176.5 -28.5t131.5 -78.5t84.5 -117.5t30 -140.5t-21 -126.5t-54.5 -90t-77 -55.5t-90 -19t-76.5 17.5t-39 49.5l-6 16q-20 -38 -48.5 -60.5 t-70.5 -22.5t-71.5 14t-52.5 38q-51 55 -51 134q0 103 72 176q70 72 169 72q66 0 105.5 -39.5t39.5 -119.5v-131z" />
<glyph unicode="A" horiz-adv-x="626" d="M243 649h148l213 -649h-125l-45 140h-241l-46 -140h-125zM223 229h182l-90 279z" />
<glyph unicode="B" horiz-adv-x="648" d="M93 649h262q108 0 167 -51q56 -47 56 -121q0 -55 -30.5 -94t-85.5 -55q55 -11 91 -49.5t36 -98.5q0 -120 -119 -164q-45 -16 -114 -16h-263v649zM353 103q57 0 82.5 23t25.5 61t-26.5 61.5t-81.5 23.5h-142v-169h142zM211 375h139q53 0 80 23t27 62.5t-26.5 63 t-79.5 23.5h-140v-172z" />
<glyph unicode="C" horiz-adv-x="634" d="M326 662q60 0 104 -14.5t76 -40.5q63 -51 82 -143l-126 -23q-16 51 -49.5 82.5t-83.5 31.5q-68 0 -110 -57q-45 -62 -45 -171.5t40 -171t109 -61.5t104 33.5t35 86.5h127q0 -109 -69.5 -168.5t-190.5 -59.5q-129 0 -205 90q-77 92 -77 250q0 160 79 250q76 86 200 86z " />
<glyph unicode="D" horiz-adv-x="686" d="M303 649q148 0 239 -88q92 -88 92 -237q0 -148 -92 -236q-91 -88 -239 -88h-211v649h211zM211 107h92q92 0 149 62q54 60 54 155q0 97 -54 157q-56 61 -149 61h-92v-435z" />
<glyph unicode="E" horiz-adv-x="586" d="M92 649h418v-102h-300v-171h281v-102h-281v-171h300v-103h-418v649z" />
<glyph unicode="F" horiz-adv-x="547" d="M93 649h409v-102h-291v-171h266v-101h-266v-275h-118v649z" />
<glyph unicode="G" horiz-adv-x="677" d="M491 103q-42 -117 -161 -117q-122 0 -201 92q-82 95 -82 243q0 156 88 250q85 91 219 91q91 0 152.5 -39.5t96.5 -124.5l-121 -28q-53 85 -134 85q-74 0 -123 -63q-51 -64 -51 -171q0 -101 46 -164q45 -62 120 -62q64 0 105 41q42 42 42 115v4l-146 3v76h259v-334h-96z " />
<glyph unicode="H" horiz-adv-x="706" d="M211 649v-271h283v271h118v-649h-118v275h-283v-275h-118v649h118z" />
<glyph unicode="I" d="M93 649h118v-649h-118v649z" />
<glyph unicode="J" horiz-adv-x="444" d="M16 27v118q77 -44 149 -44q43 0 62.5 25t19.5 76v447h119v-447q0 -112 -54 -167q-48 -49 -132 -49t-164 41z" />
<glyph unicode="K" horiz-adv-x="654" d="M212 649v-267l256 267h162l-286 -292l305 -357h-153l-231 275l-53 -54v-221h-119v649h119z" />
<glyph unicode="L" horiz-adv-x="494" d="M211 103h267v-103h-385v649h118v-546z" />
<glyph unicode="M" horiz-adv-x="874" d="M262 649l178 -386l178 386h163v-649h-119v493l-184 -422h-77l-190 436v-507h-118v649h169z" />
<glyph unicode="N" horiz-adv-x="717" d="M220 649l286 -460v460h118v-649h-120l-295 476v-476h-118v649h129z" />
<glyph unicode="O" horiz-adv-x="683" d="M342 662q65 0 119 -21.5t93 -63.5q82 -88 82 -252q0 -165 -82 -255q-78 -84 -213 -84q-134 0 -212 86q-82 89 -82 253q0 166 82 254q77 83 213 83zM467.5 495.5q-46.5 60.5 -125.5 60.5t-126 -60.5t-47 -172t47 -171t126 -59.5t125.5 59.5t46.5 171t-46.5 172z" />
<glyph unicode="P" horiz-adv-x="581" d="M490.5 595.5q61.5 -53.5 61.5 -153t-61.5 -153t-171.5 -53.5h-110v-236h-119v649h229q110 0 171.5 -53.5zM319 339q55 0 83 29t28 74.5t-28 75t-83 29.5h-110v-208h110z" />
<glyph unicode="Q" horiz-adv-x="686" d="M628 -162q-41 -18 -89 -18q-97 0 -164 101l-43 65q-129 2 -206 88q-79 91 -79 251q0 166 82 254q77 83 212 83q134 0 213 -85q82 -88 82 -252q0 -135 -52 -215.5t-140 -108.5l16 -25q24 -37 71 -39q43 0 97 23v-122zM467.5 495.5q-46.5 60.5 -125.5 60.5t-126 -60.5 t-47 -172t47 -171t126 -59.5t125.5 59.5t46.5 171t-46.5 172z" />
<glyph unicode="R" horiz-adv-x="644" d="M575 450q0 -69 -39 -118t-112 -68l174 -264h-154l-143 253h-90v-253h-118v649h240q115 0 179 -55q63 -53 63 -144zM322 332q65 0 98 29.5t33 78t-30 78t-90 29.5h-122v-215h111z" />
<glyph unicode="S" horiz-adv-x="638" d="M434 470q-16 85 -120 85q-51 0 -79.5 -20.5t-28.5 -49.5t18.5 -45.5t57.5 -30.5l141 -55q72 -28 111 -70.5t39 -106.5q0 -88 -66 -139.5t-188 -51.5q-108 0 -175 53q-75 58 -79 164h117q0 -80 83 -101q25 -7 66 -7t76 20.5t35 55t-19 53t-62 34.5l-129 51q-75 29 -115 68 t-40 108q0 81 63 128q64 49 173.5 49t169 -50.5t68.5 -141.5h-117z" />
<glyph unicode="T" horiz-adv-x="532" d="M6 649h520v-102h-201v-547h-118v547h-201v102z" />
<glyph unicode="U" horiz-adv-x="690" d="M201 649v-404q0 -80 40.5 -115t104.5 -35t104.5 35t40.5 115v404h118v-404q0 -124 -69 -191.5t-194 -67.5t-194 67.5t-69 191.5v404h118z" />
<glyph unicode="V" horiz-adv-x="607" d="M145 649l158 -501l160 501h124l-223 -649h-124l-220 649h125z" />
<glyph unicode="W" horiz-adv-x="966" d="M152 649l143 -493l139 450h80l147 -452l152 495h133l-223 -649h-124l-122 366l-121 -366h-124l-212 649h132z" />
<glyph unicode="X" horiz-adv-x="684" d="M649 0h-148l-171 230l-152 -230h-144l229 323l-230 326h145l164 -234l142 234h143l-219 -324z" />
<glyph unicode="Y" horiz-adv-x="604" d="M156 649l143 -259l150 259h139l-231 -381v-268h-118v268l-223 381h140z" />
<glyph unicode="Z" horiz-adv-x="629" d="M73 102l343 438l-343 1v108h491v-101l-342 -439l342 -1v-108h-491v102z" />
<glyph unicode="[" horiz-adv-x="352" d="M93 790h247v-106h-129v-718h129v-107h-247v931z" />
<glyph unicode="\" horiz-adv-x="472" d="M41 746h120l258 -826h-121z" />
<glyph unicode="]" horiz-adv-x="336" d="M243 -141h-247v107h129v718h-129v106h247v-931z" />
<glyph unicode="^" horiz-adv-x="527" d="M20 218l198 385h96l197 -385h-130l-115 246l-116 -246h-130z" />
<glyph unicode="_" horiz-adv-x="768" d="M55 -55h659v-103h-659v103z" />
<glyph unicode="`" horiz-adv-x="356" d="M66 900l267 -132l-30 -74l-279 104z" />
<glyph unicode="a" horiz-adv-x="584" d="M253 284q58 0 134 -19v48q0 51 -20.5 75.5t-67 24.5t-71.5 -18.5t-25 -52.5h-129q0 83 58.5 120t163.5 37q150 0 194 -105q15 -36 15 -85v-309h-103l-9 65q-47 -79 -144 -79q-94 0 -146 46q-48 44 -48 111.5t53 104t145 36.5zM387 190q-59 16 -110 16q-96 0 -96 -64 q0 -27 22 -46.5t70.5 -19.5t80 32.5t33.5 81.5z" />
<glyph unicode="b" horiz-adv-x="614" d="M563 245q0 -114 -65 -188q-63 -71 -157 -71q-45 0 -82.5 24t-59.5 74l-29 -84h-77v686h118v-261q46 74 137.5 74t153 -70t61.5 -184zM211 273v-64q2 -51 37 -84q33 -32 80.5 -32t81.5 41.5t34 109.5t-33.5 108.5t-83.5 40.5t-83 -33t-33 -87z" />
<glyph unicode="c" horiz-adv-x="530" d="M278 499q46 0 82.5 -15.5t61.5 -40.5q50 -48 59 -121l-119 -3q-8 32 -29.5 53t-49.5 21t-48 -8.5t-35 -26.5q-34 -42 -34 -116t32 -111.5t77.5 -37.5t66 21.5t20.5 58.5h119q0 -80 -53 -133q-54 -54 -151 -54q-96 0 -161 70q-69 75 -69 187q0 118 69 189q65 67 162 67z " />
<glyph unicode="d" horiz-adv-x="614" d="M410 75q-45 -89 -138 -89t-156 71q-65 74 -65 188t62 185q61 69 152 69t137 -73v260h119v-686h-97zM203.5 352.5q-33.5 -40.5 -33.5 -108.5t34 -109.5t86 -41.5q43 0 77 34q35 35 35 88v63q-2 52 -35 85q-30 30 -80 30t-83.5 -40.5z" />
<glyph unicode="e" horiz-adv-x="530" d="M469.5 354q12.5 -42 12.5 -77t-4 -63h-314q2 -59 29 -96t82 -37q73 0 87 64h119q-12 -73 -67 -115q-57 -44 -139 -44q-96 0 -161 70q-67 73 -67 187q0 117 67 188q64 68 161 68q101 0 157 -71q25 -32 37.5 -74zM276 405q-50 0 -78 -32.5t-33 -83.5h207q0 79 -50 106 q-19 10 -46 10z" />
<glyph unicode="f" horiz-adv-x="366" d="M40 486h72v57q0 75 44 115q40 36 104 36q41 0 101 -12l-23 -91q-28 10 -50.5 10t-39.5 -12.5t-17 -46.5v-56h89v-79h-89v-407h-119v407h-72v79z" />
<glyph unicode="g" horiz-adv-x="582" d="M135 199q-59 50 -59 125q0 79 62 128q60 47 137.5 47t129.5 -29q6 57 49 92q42 35 99 35l-6 -113q-86 0 -89 -57q37 -46 37 -94t-17 -80.5t-46 -54.5q-60 -48 -146 -48q-49 0 -89 15q-40 -12 -40 -48q0 -45 76 -45h163q166 0 166 -116q0 -39 -19.5 -76.5t-56.5 -66.5 q-82 -64 -206 -64q-120 0 -195 49q-70 47 -70 115q0 45 27.5 71.5t72.5 33.5q-59 36 -59 89q0 35 22 58.5t57 33.5zM225 -11q-94 -4 -94 -71q0 -34 39.5 -54.5t93.5 -20.5t84.5 9t51.5 24q45 30 45 72q0 18 -12.5 29.5t-36.5 11.5h-171zM355.5 391.5q-22.5 25.5 -68.5 25.5 t-70 -25.5t-24 -66t24 -66.5t70 -26t68.5 26t22.5 66.5t-22.5 66z" />
<glyph unicode="h" horiz-adv-x="623" d="M211 407q50 92 146 92t141.5 -59t45.5 -156v-284h-118v284q0 54 -26 81.5t-73 27.5t-80.5 -42t-35.5 -126v-225h-118v686h118v-279z" />
<glyph unicode="i" horiz-adv-x="328" d="M103 487h118v-487h-118v487zM89 643q0 32 19 50.5t54 18.5q34 0 53.5 -18.5t19.5 -50.5t-19.5 -50.5t-53.5 -18.5q-35 0 -54 18.5t-19 50.5z" />
<glyph unicode="j" horiz-adv-x="335" d="M95 643q0 32 19.5 50.5t54 18.5t53.5 -18.5t19 -50.5t-19 -50.5t-53.5 -18.5t-54 18.5t-19.5 50.5zM-74 -118q60 -30 103 -30t62 20.5t19 71.5v544h118v-546q0 -104 -43.5 -148.5t-113 -44.5t-147.5 31z" />
<glyph unicode="k" horiz-adv-x="575" d="M265 237l-54 -45v-192h-118v686h118v-371l192 171h160l-215 -180l227 -306h-144z" />
<glyph unicode="l" d="M93 686h118v-686h-118v686z" />
<glyph unicode="m" horiz-adv-x="949" d="M525 394q47 105 165 105q87 0 135 -59q46 -56 46 -156v-284h-119v284q0 54 -26 81.5t-73 27.5t-77 -41t-32 -124v-228h-118v284q0 54 -26 81.5t-73 27.5t-80.5 -42t-35.5 -126v-225h-118v486h103l13 -84q48 97 154 97q61 0 101.5 -28t60.5 -77z" />
<glyph unicode="n" horiz-adv-x="623" d="M209 402q48 97 154 97q90 0 135.5 -59t45.5 -156v-284h-118v284q0 54 -26 81.5t-73 27.5t-80.5 -42t-35.5 -126v-225h-118v486h103z" />
<glyph unicode="o" horiz-adv-x="566" d="M284 499q49 0 92 -15.5t74 -47.5q69 -70 69 -194q0 -122 -69 -192q-62 -64 -166 -64t-168 64q-69 69 -69 192q0 125 69 194q63 63 168 63zM371 358.5q-30 38.5 -83.5 38.5t-87.5 -38.5t-34 -115.5t30.5 -115.5t83.5 -38.5t87 38.5t34 115.5t-30 115.5z" />
<glyph unicode="p" horiz-adv-x="610" d="M201 420q46 79 140 79q90 0 154 -68q68 -72 68 -188q0 -117 -69 -189q-64 -68 -153 -68t-130 53v-276h-118v723h97zM320 93q21 0 43.5 9t40.5 28q40 42 40 112.5t-34.5 110.5t-84 40t-81 -28.5t-33.5 -81.5v-87q0 -47 33 -76q31 -27 76 -27z" />
<glyph unicode="q" horiz-adv-x="610" d="M398 63q-36 -77 -124 -77q-94 0 -158 68q-69 72 -69 189q0 115 67 188q63 68 154 68q45 0 83.5 -21.5t62.5 -66.5l26 75h77v-561q0 -43 10.5 -57t23.5 -20.5t32 -12.5l-34 -86q-82 20 -116.5 64t-34.5 121v129zM366 363q-32 30 -81.5 30t-84 -40t-34.5 -110 q0 -71 40 -113q35 -37 85 -37q41 0 72 25q33 28 35 73v87q0 55 -32 85z" />
<glyph unicode="r" horiz-adv-x="416" d="M211 390q44 105 132 105q17 0 43 -7l-2 -118q-28 6 -55 6q-118 0 -118 -163v-213h-118v487h118v-97z" />
<glyph unicode="s" horiz-adv-x="527" d="M159 148q2 -69 101 -69q38 0 62.5 16.5t24.5 38.5t-15 34t-47 22l-106 38q-118 41 -118 134q0 62 55.5 99.5t149 37.5t144 -41t52.5 -103h-111q-2 24 -23 38t-60 14t-60.5 -15.5t-21.5 -35.5q0 -35 59 -52l115 -43q57 -19 87.5 -48.5t30.5 -76.5q0 -60 -57 -104 q-59 -46 -156 -46t-156 42.5t-60 119.5h110z" />
<glyph unicode="t" horiz-adv-x="395" d="M367 12q-66 -26 -104 -26t-66.5 9t-50.5 27q-46 41 -46 113v272h-68v79h68v128h118v-128h132v-79h-132v-268q0 -60 57 -60q29 0 75 16z" />
<glyph unicode="u" horiz-adv-x="627" d="M416 88q-46 -97 -148 -97q-129 0 -170 101q-15 35 -15 85v310h118v-298q0 -48 23 -71.5t56.5 -23.5t56.5 9.5t40 28.5q37 43 39 115v240h118v-487h-118v88z" />
<glyph unicode="v" horiz-adv-x="519" d="M148 486l111 -369l112 369h136l-181 -486h-133l-181 486h136z" />
<glyph unicode="w" horiz-adv-x="758" d="M136 486l98 -347l93 320h107l93 -321l99 348h118l-160 -486h-116l-90 291l-88 -291h-117l-161 486h124z" />
<glyph unicode="x" horiz-adv-x="554" d="M537 0h-144l-120 156l-112 -156h-145l189 242l-189 245h145l119 -156l113 156h144l-188 -245z" />
<glyph unicode="y" horiz-adv-x="504" d="M153 486l117 -350l102 350h120l-186 -574q-29 -87 -70.5 -125t-105.5 -38q-65 0 -130 32v104q52 -33 105 -33q35 0 57.5 28t36.5 73l15 47l-195 486h134z" />
<glyph unicode="z" horiz-adv-x="495" d="M57 96l252 294h-252v96h382v-96l-244 -294h244v-96h-382v96z" />
<glyph unicode="{" horiz-adv-x="391" d="M387 -156q-131 0 -197 70q-61 65 -61 182v91q0 42 -6.5 57.5t-26.5 15.5h-25v119h25q20 0 26.5 15.5t6.5 57.5v92q0 179 141 232q49 19 117 19v-107q-74 0 -107.5 -35.5t-33.5 -110.5v-96q0 -48 -18.5 -79t-47.5 -45v-5q29 -14 47.5 -45t18.5 -79v-96q0 -75 33.5 -110.5 t107.5 -35.5v-107z" />
<glyph unicode="|" d="M93 771h118v-893h-118v893z" />
<glyph unicode="}" horiz-adv-x="391" d="M4 -49q74 0 107.5 35.5t33.5 110.5v96q0 48 18.5 79t47.5 45v5q-29 14 -47.5 45t-18.5 79v96q0 75 -33.5 110.5t-107.5 35.5v107q131 0 198 -71q60 -64 60 -180v-92q0 -42 6.5 -57.5t26.5 -15.5h25v-119h-25q-20 0 -26.5 -15.5t-6.5 -57.5v-91q0 -180 -141 -234 q-49 -18 -117 -18v107z" />
<glyph unicode="~" horiz-adv-x="570" d="M184 265q-38 0 -64 -61l-63 34q17 65 47.5 102.5t80.5 37.5q34 0 89 -21q86 -33 110 -33q41 0 65 56l64 -41q-40 -127 -138 -127q-33 0 -102 28q-37 13 -55.5 19t-33.5 6z" />
<glyph unicode="&#xa3;" horiz-adv-x="602" d="M22 107h32q37 0 52 21t15 66v87h-83v79h83v84q0 108 56 163t148 55q168 0 192 -175h-116q-5 33 -25 50.5t-54.5 17.5t-58.5 -27t-24 -84v-84h171v-79h-171v-79q0 -65 -36 -95h136q50 0 71.5 18.5t26.5 58.5h129q-4 -92 -54 -136q-56 -48 -172 -48h-318v107z" />
<glyph unicode="&#xa8;" horiz-adv-x="382" d="M43.5 788.5q-19.5 18.5 -19.5 47t19.5 47.5t50.5 19t51 -19t20 -47.5t-20 -47t-51 -18.5t-50.5 18.5zM217 836q0 29 20 48t50.5 19t50.5 -19t20 -48t-20 -47t-50.5 -18t-50.5 18t-20 47z" />
<glyph unicode="&#xad;" horiz-adv-x="373" d="M46 353h281v-103h-281v103z" />
<glyph unicode="&#xb4;" horiz-adv-x="356" d="M332 798l-279 -104l-30 74l267 132z" />
<glyph unicode="&#xc0;" horiz-adv-x="626" d="M243 649h148l213 -649h-125l-45 140h-241l-46 -140h-125zM205 900l267 -132l-30 -74l-279 104zM223 229h182l-90 279z" />
<glyph unicode="&#xc1;" horiz-adv-x="626" d="M243 649h148l213 -649h-125l-45 140h-241l-46 -140h-125zM471 798l-279 -104l-30 74l267 132zM223 229h182l-90 279z" />
<glyph unicode="&#xc2;" horiz-adv-x="626" d="M243 649h148l213 -649h-125l-45 140h-241l-46 -140h-125zM524 752l-75 -59l-133 101l-134 -101l-75 59l209 161zM223 229h182l-90 279z" />
<glyph unicode="&#xc3;" horiz-adv-x="626" d="M243 649h148l213 -649h-125l-45 140h-241l-46 -140h-125zM386 838q32 0 53 49l50 -33q-11 -54 -39.5 -88.5t-60.5 -34.5q-18 0 -35.5 7t-43.5 20q-45 23 -61 23q-35 0 -59 -50l-47 28q12 61 40.5 94.5t66.5 33.5q27 0 63 -18.5t48.5 -24.5t24.5 -6zM223 229h182l-90 279z " />
<glyph unicode="&#xc4;" horiz-adv-x="626" d="M243 649h148l213 -649h-125l-45 140h-241l-46 -140h-125zM223 229h182l-90 279zM168.5 767.5q-19.5 18.5 -19.5 47t19.5 47.5t50.5 19t51 -19t20 -47.5t-20 -47t-51 -18.5t-50.5 18.5zM342 815q0 29 20 48t50.5 19t50.5 -19t20 -48t-20 -47t-50.5 -18t-50.5 18t-20 47z " />
<glyph unicode="&#xc8;" horiz-adv-x="588" d="M92 649h418v-102h-300v-171h281v-102h-281v-171h300v-103h-418v649zM190 900l267 -132l-30 -74l-279 104z" />
<glyph unicode="&#xc9;" horiz-adv-x="588" d="M92 0h418v103h-300v171h281v102h-281v171h300v102h-418v-649zM456 798l-279 -104l-30 74l267 132z" />
<glyph unicode="&#xca;" horiz-adv-x="588" d="M102 649h418v-102h-300v-171h281v-102h-281v-171h300v-103h-418v649zM520 752l-75 -59l-133 101l-134 -101l-75 59l209 161z" />
<glyph unicode="&#xcb;" horiz-adv-x="588" d="M92 649h418v-102h-300v-171h281v-102h-281v-171h300v-103h-418v649zM154.5 767.5q-19.5 18.5 -19.5 47t19.5 47.5t50.5 19t51 -19t20 -47.5t-20 -47t-51 -18.5t-50.5 18.5zM328 815q0 29 20 48t50.5 19t50.5 -19t20 -48t-20 -47t-50.5 -18t-50.5 18t-20 47z" />
<glyph unicode="&#xcc;" d="M93 649h118v-649h-118v649zM41 900l267 -132l-30 -74l-279 104z" />
<glyph unicode="&#xcd;" d="M93 0h118v649h-118v-649zM307 798l-279 -104l-30 74l267 132z" />
<glyph unicode="&#xce;" d="M93 649h118v-649h-118v649zM361 752l-75 -59l-133 101l-134 -101l-75 59l209 161z" />
<glyph unicode="&#xcf;" d="M93 649h118v-649h-118v649zM5.5 767.5q-19.5 18.5 -19.5 47t19.5 47.5t50.5 19t51 -19t20 -47.5t-20 -47t-51 -18.5t-50.5 18.5zM179 815q0 29 20 48t50.5 19t50.5 -19t20 -48t-20 -47t-50.5 -18t-50.5 18t-20 47z" />
<glyph unicode="&#xd1;" horiz-adv-x="720" d="M91 649v-649h118v476l295 -476h120v649h-118v-460l-286 460h-129zM429 838q32 0 53 49l50 -33q-11 -54 -39.5 -88.5t-60.5 -34.5q-18 0 -35.5 7t-44.5 20q-44 23 -60 23q-35 0 -59 -50l-47 28q12 61 40.5 94.5t66.5 33.5q27 0 63 -18.5t48.5 -24.5t24.5 -6z" />
<glyph unicode="&#xd2;" horiz-adv-x="683" d="M342 662q65 0 119 -21.5t93 -63.5q82 -88 82 -252q0 -165 -82 -255q-78 -84 -213 -84q-134 0 -212 86q-82 89 -82 253q0 166 82 254q77 83 213 83zM467.5 495.5q-46.5 60.5 -125.5 60.5t-126 -60.5t-47 -172t47 -171t126 -59.5t125.5 59.5t46.5 171t-46.5 172zM228 900 l267 -132l-30 -74l-279 104z" />
<glyph unicode="&#xd3;" horiz-adv-x="683" d="M342 662q-66 0 -120 -20.5t-93 -62.5q-82 -88 -82 -254q0 -164 82 -253q78 -86 212 -86q135 0 213 84q82 90 82 255q0 164 -82 252q-79 85 -212 85zM216 495.5q47 60.5 126 60.5t125.5 -60.5t46.5 -172t-46.5 -171t-125.5 -59.5t-126 59.5t-47 171t47 172zM494 798 l-279 -104l-30 74l267 132z" />
<glyph unicode="&#xd4;" horiz-adv-x="683" d="M342 662q65 0 119 -21.5t93 -63.5q82 -88 82 -252q0 -165 -82 -255q-78 -84 -213 -84q-134 0 -212 86q-82 89 -82 253q0 166 82 254q77 83 213 83zM467.5 495.5q-46.5 60.5 -125.5 60.5t-126 -60.5t-47 -172t47 -171t126 -59.5t125.5 59.5t46.5 171t-46.5 172zM549 752 l-75 -59l-133 101l-134 -101l-75 59l209 161z" />
<glyph unicode="&#xd5;" horiz-adv-x="683" d="M342 662q-66 0 -120 -20.5t-93 -62.5q-82 -88 -82 -254q0 -164 82 -253q78 -86 212 -86q135 0 213 84q82 90 82 255q0 164 -82 252q-79 85 -212 85zM216 495.5q47 60.5 126 60.5t125.5 -60.5t46.5 -172t-46.5 -171t-125.5 -59.5t-126 59.5t-47 171t47 172zM411 838 q32 0 53 49l50 -33q-11 -54 -39.5 -88.5t-60.5 -34.5q-18 0 -35.5 7t-44.5 20q-44 23 -60 23q-35 0 -59 -50l-47 28q12 61 40.5 94.5t66.5 33.5q27 0 63 -18.5t48.5 -24.5t24.5 -6z" />
<glyph unicode="&#xd6;" horiz-adv-x="683" d="M342 662q65 0 119 -21.5t93 -63.5q82 -88 82 -252q0 -165 -82 -255q-78 -84 -213 -84q-134 0 -212 86q-82 89 -82 253q0 166 82 254q77 83 213 83zM467.5 495.5q-46.5 60.5 -125.5 60.5t-126 -60.5t-47 -172t47 -171t126 -59.5t125.5 59.5t46.5 171t-46.5 172z M193.5 767.5q-19.5 18.5 -19.5 47t19.5 47.5t50.5 19t51 -19t20 -47.5t-20 -47t-51 -18.5t-50.5 18.5zM367 815q0 29 20 48t50.5 19t50.5 -19t20 -48t-20 -47t-50.5 -18t-50.5 18t-20 47z" />
<glyph unicode="&#xd9;" horiz-adv-x="690" d="M201 649v-404q0 -80 40.5 -115t104.5 -35t104.5 35t40.5 115v404h118v-404q0 -124 -69 -191.5t-194 -67.5t-194 67.5t-69 191.5v404h118zM233 900l267 -132l-30 -74l-279 104z" />
<glyph unicode="&#xda;" horiz-adv-x="690" d="M83 649v-404q0 -124 69 -191.5t194 -67.5t194 67.5t69 191.5v404h-118v-404q0 -80 -40.5 -115t-104.5 -35t-104.5 35t-40.5 115v404h-118zM499 798l-279 -104l-30 74l267 132z" />
<glyph unicode="&#xdb;" horiz-adv-x="690" d="M201 649v-404q0 -80 40.5 -115t104.5 -35t104.5 35t40.5 115v404h118v-404q0 -124 -69 -191.5t-194 -67.5t-194 67.5t-69 191.5v404h118zM554 752l-75 -59l-133 101l-134 -101l-75 59l209 161z" />
<glyph unicode="&#xdc;" horiz-adv-x="690" d="M201 649v-404q0 -80 40.5 -115t104.5 -35t104.5 35t40.5 115v404h118v-404q0 -124 -69 -191.5t-194 -67.5t-194 67.5t-69 191.5v404h118zM199.5 767.5q-19.5 18.5 -19.5 47t19.5 47.5t50.5 19t51 -19t20 -47.5t-20 -47t-51 -18.5t-50.5 18.5zM373 815q0 29 20 48t50.5 19 t50.5 -19t20 -48t-20 -47t-50.5 -18t-50.5 18t-20 47z" />
<glyph unicode="&#xe0;" horiz-adv-x="585" d="M253 284q58 0 134 -19v48q0 51 -20.5 75.5t-67 24.5t-71.5 -18.5t-25 -52.5h-129q0 83 58.5 120t163.5 37q150 0 194 -105q15 -36 15 -85v-309h-103l-9 65q-47 -79 -144 -79q-94 0 -146 46q-48 44 -48 111.5t53 104t145 36.5zM185 764l267 -132l-30 -74l-279 104z M387 190q-59 16 -110 16q-96 0 -96 -64q0 -27 22 -46.5t70.5 -19.5t80 32.5t33.5 81.5z" />
<glyph unicode="&#xe1;" horiz-adv-x="585" d="M253 284q58 0 134 -19v48q0 51 -20.5 75.5t-67 24.5t-71.5 -18.5t-25 -52.5h-129q0 83 58.5 120t163.5 37q150 0 194 -105q15 -36 15 -85v-309h-103l-9 65q-47 -79 -144 -79q-94 0 -146 46q-48 44 -48 111.5t53 104t145 36.5zM451 662l-279 -104l-30 74l267 132zM387 190 q-59 16 -110 16q-96 0 -96 -64q0 -27 22 -46.5t70.5 -19.5t80 32.5t33.5 81.5z" />
<glyph unicode="&#xe2;" horiz-adv-x="585" d="M253 284q58 0 134 -19v48q0 51 -20.5 75.5t-67 24.5t-71.5 -18.5t-25 -52.5h-129q0 83 58.5 120t163.5 37q150 0 194 -105q15 -36 15 -85v-309h-103l-9 65q-47 -79 -144 -79q-94 0 -146 46q-48 44 -48 111.5t53 104t145 36.5zM506 616l-75 -59l-133 101l-134 -101l-75 59 l209 161zM387 190q-59 16 -110 16q-96 0 -96 -64q0 -27 22 -46.5t70.5 -19.5t80 32.5t33.5 81.5z" />
<glyph unicode="&#xe3;" horiz-adv-x="585" d="M253 284q58 0 134 -19v48q0 51 -20.5 75.5t-67 24.5t-71.5 -18.5t-25 -52.5h-129q0 83 58.5 120t163.5 37q150 0 194 -105q15 -36 15 -85v-309h-103l-9 65q-47 -79 -144 -79q-94 0 -146 46q-48 44 -48 111.5t53 104t145 36.5zM368 702q32 0 53 49l50 -33 q-11 -54 -39.5 -88.5t-60.5 -34.5q-18 0 -35.5 7t-43.5 20q-45 23 -61 23q-35 0 -59 -50l-47 28q12 61 40.5 94.5t66.5 33.5q27 0 63 -18.5t48.5 -24.5t24.5 -6zM387 190q-59 16 -110 16q-96 0 -96 -64q0 -27 22 -46.5t70.5 -19.5t80 32.5t33.5 81.5z" />
<glyph unicode="&#xe4;" horiz-adv-x="585" d="M253 284q58 0 134 -19v48q0 51 -20.5 75.5t-67 24.5t-71.5 -18.5t-25 -52.5h-129q0 83 58.5 120t163.5 37q150 0 194 -105q15 -36 15 -85v-309h-103l-9 65q-47 -79 -144 -79q-94 0 -146 46q-48 44 -48 111.5t53 104t145 36.5zM387 190q-59 16 -110 16q-96 0 -96 -64 q0 -27 22 -46.5t70.5 -19.5t80 32.5t33.5 81.5zM150.5 631.5q-19.5 18.5 -19.5 47t19.5 47.5t50.5 19t51 -19t20 -47.5t-20 -47t-51 -18.5t-50.5 18.5zM324 679q0 29 20 48t50.5 19t50.5 -19t20 -48t-20 -47t-50.5 -18t-50.5 18t-20 47z" />
<glyph unicode="&#xe8;" horiz-adv-x="530" d="M469.5 354q12.5 -42 12.5 -77t-4 -63h-314q2 -59 29 -96t82 -37q73 0 87 64h119q-12 -73 -67 -115q-57 -44 -139 -44q-96 0 -161 70q-67 73 -67 187q0 117 67 188q64 68 161 68q101 0 157 -71q25 -32 37.5 -74zM154 774l267 -132l-30 -74l-279 104zM276 405 q-50 0 -78 -32.5t-33 -83.5h207q0 79 -50 106q-19 10 -46 10z" />
<glyph unicode="&#xe9;" horiz-adv-x="530" d="M362 145q-14 -64 -87 -64q-55 0 -82 37t-29 96h314q4 28 4 63t-12.5 77t-37.5 74q-56 71 -157 71q-97 0 -161 -68q-67 -71 -67 -188q0 -114 67 -187q65 -70 161 -70q82 0 139 44q55 42 67 115h-119zM420 672l-279 -104l-30 74l267 132zM372 289h-207q5 51 33 83.5 t78 32.5t73 -32.5t23 -83.5z" />
<glyph unicode="&#xea;" horiz-adv-x="530" d="M476.5 354q12.5 -42 12.5 -77t-4 -63h-314q2 -59 29 -96t82 -37q73 0 87 64h119q-12 -73 -67 -115q-57 -44 -139 -44q-96 0 -161 70q-67 73 -67 187q0 117 67 188q64 68 161 68q101 0 156 -71q26 -32 38.5 -74zM480 626l-75 -59l-133 101l-134 -101l-75 59l209 161z M283 405q-50 0 -78 -32.5t-33 -83.5h207q0 79 -51 106q-18 10 -45 10z" />
<glyph unicode="&#xeb;" horiz-adv-x="530" d="M469.5 354q12.5 -42 12.5 -77t-4 -63h-314q2 -59 29 -96t82 -37q73 0 87 64h119q-12 -73 -67 -115q-57 -44 -139 -44q-96 0 -161 70q-67 73 -67 187q0 117 67 188q64 68 161 68q101 0 157 -71q25 -32 37.5 -74zM276 405q-50 0 -78 -32.5t-33 -83.5h207q0 79 -50 106 q-19 10 -46 10zM118.5 631.5q-19.5 18.5 -19.5 47t19.5 47.5t50.5 19t51 -19t20 -47.5t-20 -47t-51 -18.5t-50.5 18.5zM292 679q0 29 20 48t50.5 19t50.5 -19t20 -48t-20 -47t-50.5 -18t-50.5 18t-20 47z" />
<glyph unicode="&#xec;" horiz-adv-x="328" d="M103 487h118v-487h-118v487zM50 764l267 -132l-30 -74l-279 104z" />
<glyph unicode="&#xed;" horiz-adv-x="328" d="M103 0h118v487h-118v-487zM316 662l-279 -104l-30 74l267 132z" />
<glyph unicode="&#xee;" horiz-adv-x="328" d="M103 487h118v-487h-118v487zM370 616l-75 -59l-133 101l-134 -101l-75 59l209 161z" />
<glyph unicode="&#xef;" horiz-adv-x="328" d="M103 487h118v-487h-118v487zM14.5 631.5q-19.5 18.5 -19.5 47t19.5 47.5t50.5 19t51 -19t20 -47.5t-20 -47t-51 -18.5t-50.5 18.5zM188 679q0 29 20 48t50.5 19t50.5 -19t20 -48t-20 -47t-50.5 -18t-50.5 18t-20 47z" />
<glyph unicode="&#xf1;" horiz-adv-x="623" d="M363 499q-106 0 -154 -97l-13 84h-103v-486h118v225q2 84 35.5 126t80.5 42t73 -27.5t26 -81.5v-284h118v284q0 97 -45.5 156t-135.5 59zM384 702q32 0 53 49l50 -33q-11 -54 -39.5 -88.5t-60.5 -34.5q-18 0 -35.5 7t-43.5 20q-45 23 -61 23q-35 0 -59 -50l-47 28 q12 61 40.5 94.5t66.5 33.5q27 0 63 -18.5t48.5 -24.5t24.5 -6z" />
<glyph unicode="&#xf2;" horiz-adv-x="566" d="M284 499q49 0 92 -15.5t74 -47.5q69 -70 69 -194q0 -122 -69 -192q-62 -64 -166 -64t-168 64q-69 69 -69 192q0 125 69 194q63 63 168 63zM371 358.5q-30 38.5 -83.5 38.5t-87.5 -38.5t-34 -115.5t30.5 -115.5t83.5 -38.5t87 38.5t34 115.5t-30 115.5zM172 764l267 -132 l-30 -74l-279 104z" />
<glyph unicode="&#xf3;" horiz-adv-x="566" d="M284 499q-50 0 -93 -15.5t-75 -47.5q-69 -69 -69 -194q0 -123 69 -192q64 -64 168 -64t166 64q69 70 69 192q0 124 -69 194q-62 63 -166 63zM200 358.5q34 38.5 87.5 38.5t83.5 -38.5t30 -115.5t-34 -115.5t-87 -38.5t-83.5 38.5t-30.5 115.5t34 115.5zM438 662 l-279 -104l-30 74l267 132z" />
<glyph unicode="&#xf4;" horiz-adv-x="566" d="M284 499q49 0 92 -15.5t74 -47.5q69 -70 69 -194q0 -122 -69 -192q-62 -64 -166 -64t-168 64q-69 69 -69 192q0 125 69 194q63 63 168 63zM371 358.5q-30 38.5 -83.5 38.5t-87.5 -38.5t-34 -115.5t30.5 -115.5t83.5 -38.5t87 38.5t34 115.5t-30 115.5zM492 616l-75 -59 l-133 101l-134 -101l-75 59l209 161z" />
<glyph unicode="&#xf5;" horiz-adv-x="566" d="M284 499q-50 0 -93 -15.5t-75 -47.5q-69 -69 -69 -194q0 -123 69 -192q64 -64 168 -64t166 64q69 70 69 192q0 124 -69 194q-62 63 -166 63zM200 358.5q34 38.5 87.5 38.5t83.5 -38.5t30 -115.5t-34 -115.5t-87 -38.5t-83.5 38.5t-30.5 115.5t34 115.5zM353 702 q32 0 53 49l50 -33q-11 -54 -39.5 -88.5t-60.5 -34.5q-18 0 -35.5 7t-44.5 20q-44 23 -60 23q-35 0 -59 -50l-47 28q12 61 40.5 94.5t66.5 33.5q27 0 63 -18.5t48.5 -24.5t24.5 -6z" />
<glyph unicode="&#xf6;" horiz-adv-x="566" d="M284 499q49 0 92 -15.5t74 -47.5q69 -70 69 -194q0 -122 -69 -192q-62 -64 -166 -64t-168 64q-69 69 -69 192q0 125 69 194q63 63 168 63zM371 358.5q-30 38.5 -83.5 38.5t-87.5 -38.5t-34 -115.5t30.5 -115.5t83.5 -38.5t87 38.5t34 115.5t-30 115.5zM136.5 631.5 q-19.5 18.5 -19.5 47t19.5 47.5t50.5 19t51 -19t20 -47.5t-20 -47t-51 -18.5t-50.5 18.5zM310 679q0 29 20 48t50.5 19t50.5 -19t20 -48t-20 -47t-50.5 -18t-50.5 18t-20 47z" />
<glyph unicode="&#xf9;" horiz-adv-x="627" d="M416 88q-46 -97 -148 -97q-129 0 -170 101q-15 35 -15 85v310h118v-298q0 -48 23 -71.5t56.5 -23.5t56.5 9.5t40 28.5q37 43 39 115v240h118v-487h-118v88zM201 784l267 -132l-30 -74l-279 104z" />
<glyph unicode="&#xfa;" horiz-adv-x="627" d="M268 -9q102 0 148 97v-88h118v487h-118v-232q0 -77 -38 -121q-34 -40 -82.5 -40t-71.5 23.5t-23 71.5v298h-118v-310q0 -94 53 -143q47 -43 132 -43zM467 682l-279 -104l-30 74l267 132z" />
<glyph unicode="&#xfb;" horiz-adv-x="627" d="M416 88q-46 -97 -148 -97q-129 0 -170 101q-15 35 -15 85v310h118v-298q0 -48 23 -71.5t56.5 -23.5t56.5 9.5t40 28.5q37 43 39 115v240h118v-487h-118v88zM521 636l-75 -59l-133 101l-134 -101l-75 59l209 161z" />
<glyph unicode="&#xfc;" horiz-adv-x="627" d="M416 88q-46 -97 -148 -97q-129 0 -170 101q-15 35 -15 85v310h118v-298q0 -48 23 -71.5t56.5 -23.5t56.5 9.5t40 28.5q37 43 39 115v240h118v-487h-118v88zM165.5 631.5q-19.5 18.5 -19.5 47t19.5 47.5t50.5 19t51 -19t20 -47.5t-20 -47t-51 -18.5t-50.5 18.5zM339 679 q0 29 20 48t50.5 19t50.5 -19t20 -48t-20 -47t-50.5 -18t-50.5 18t-20 47z" />
<glyph unicode="&#x2c6;" horiz-adv-x="465" d="M441 752l-75 -59l-133 101l-134 -101l-75 59l209 161z" />
<glyph unicode="&#x2dc;" horiz-adv-x="394" d="M266 838q32 0 53 49l50 -33q-11 -54 -39.5 -88.5t-60.5 -34.5q-18 0 -35.5 7t-43.5 20q-45 23 -61 23q-35 0 -59 -50l-47 28q12 61 40.5 94.5t66.5 33.5q27 0 63 -18.5t48.5 -24.5t24.5 -6z" />
<glyph unicode="&#x2000;" horiz-adv-x="456" />
<glyph unicode="&#x2001;" horiz-adv-x="913" />
<glyph unicode="&#x2002;" horiz-adv-x="456" />
<glyph unicode="&#x2003;" horiz-adv-x="913" />
<glyph unicode="&#x2004;" />
<glyph unicode="&#x2005;" horiz-adv-x="228" />
<glyph unicode="&#x2006;" horiz-adv-x="152" />
<glyph unicode="&#x2007;" horiz-adv-x="152" />
<glyph unicode="&#x2008;" horiz-adv-x="114" />
<glyph unicode="&#x2009;" horiz-adv-x="182" />
<glyph unicode="&#x200a;" horiz-adv-x="50" />
<glyph unicode="&#x2010;" horiz-adv-x="373" d="M46 353h281v-103h-281v103z" />
<glyph unicode="&#x2011;" horiz-adv-x="373" d="M46 353h281v-103h-281v103z" />
<glyph unicode="&#x2012;" horiz-adv-x="373" d="M46 353h281v-103h-281v103z" />
<glyph unicode="&#x2013;" horiz-adv-x="525" d="M55 353h415v-103h-415v103z" />
<glyph unicode="&#x2014;" horiz-adv-x="768" d="M55 353h659v-103h-659v103z" />
<glyph unicode="&#x2018;" horiz-adv-x="271" d="M189.5 400q-22.5 -21 -62.5 -21t-65.5 31.5t-25.5 78t32.5 91.5t86.5 72l83 -46q-77 -36 -93 -87q28 -5 47.5 -22t19.5 -46.5t-22.5 -50.5z" />
<glyph unicode="&#x2019;" horiz-adv-x="271" d="M77 631.5q23 20.5 62.5 20.5t65 -31.5t25.5 -78t-32.5 -91.5t-86.5 -72l-82 45q77 39 93 88q-29 5 -48.5 22t-19.5 47t23 50.5z" />
<glyph unicode="&#x202f;" horiz-adv-x="182" />
<glyph unicode="&#x205f;" horiz-adv-x="228" />
<glyph unicode="&#xe000;" horiz-adv-x="485" d="M0 485h485v-485h-485v485z" />
</font>
</defs>
</svg>
